<?xml version="1.0" encoding="UTF-8"?>
<svg version="1.1" viewBox="0 0 64 64" xmlns="http://www.w3.org/2000/svg">
<g transform="matrix(1.6121 0 0 1.6 -3.2242 -4)">
<path d="m32.6 10v0.7q-1.4 0.2-2.1 0.8c-0.7 0.6-1.5 1.5-2 2.7l-10.7 20.8h-0.7l-10.7-21.1c-0.5-1.1-1.1-1.7-1.3-2q-0.5-0.5-1.2-0.8t-1.9-0.4v-0.7h10.4v0.7c-1.2 0.1-1.8 0.3-2.1 0.5q-0.6 0.5-0.6 1.1 0 0.9 0.9 2.8l7.9 14.3 7.7-14.1c0.6-1.4 1.1-2.4 1.1-2.9q0-0.5-0.5-1c-0.4-0.3-0.8-0.5-1.7-0.7q-0.1 0-0.3 0v-0.7z"/>
<path d="m41.7 10v0.7q-1.4 0.2-2.1 0.8c-0.6 0.6-1.4 1.5-2 2.7l-9.3 20.8h-0.7l-9.9-21.1c-0.5-1.1-1.2-1.7-1.4-2q-0.4-0.5-1.1-0.8c-0.5-0.2-0.9-0.4-1.7-0.4v-0.7h10.2v0.7c-1.2 0.1-1.8 0.3-2.2 0.5q-0.5 0.5-0.5 1.1 0 0.9 0.9 2.8l7.1 14.3 6.4-14.1c0.6-1.4 1.1-2.4 1.1-2.9q0-0.5-0.6-1-0.5-0.5-1.9-0.7 0 0-0.3 0v-0.7z"/>
</g>
</svg>
